# xmcd
# 
# Track frame offsets:
#     150
#     18631
#     33760
#     52071
#     75686
#     94053
#     122219
#     140584
#     162843
#     183890
# 
# Disc length: 2694
# 
# Revision: 0
# Processed by: cddbd v1.5.2PL0 Copyright (c) Steve Scherf et al.
# Submitted via: fre:ac v1.0.31
# 
DISCID=7f0a840a
DTITLE=The Rides - Pierced Arrow
DYEAR=0
DGENRE=Blues
TTITLE0=Kick Out Of It
TTITLE1=Riva Diva
TTITLE2=Virtual World
TTITLE3=By My Side
TTITLE4=Mr. Policeman
TTITLE5=I've Got To Use My Imagination
TTITLE6=Game On
TTITLE7=I Need Your Lovin'
TTITLE8=There Was A Place
TTITLE9=My Babe
EXTD=
EXTT0=
EXTT1=
EXTT2=
EXTT3=
EXTT4=
EXTT5=
EXTT6=
EXTT7=
EXTT8=
EXTT9=
PLAYORDER=
